M48
;DRILL file {KiCad 5.0.2+dfsg1-1~bpo9+1} date Jo 09 mai 2019 23:16:39 +0300
;FORMAT={3:3/ absolute / metric / suppress leading zeros}
FMAT,2
METRIC,TZ
T1C0.400
T2C0.500
T3C0.600
T4C0.800
T5C1.000
T6C1.100
T7C1.300
T8C1.400
T9C1.500
T10C1.700
T11C2.000
T12C0.460
T13C0.800
T14C2.400
T15C2.500
T16C3.550
%
G90
G05
T1
X38750Y-67250
X38750Y-69650
X39250Y-98250
X48750Y-98250
X52000Y-69250
X52000Y-71250
X52000Y-73250
X56750Y-84250
X65000Y-90500
X65000Y-98250
X68000Y-88500
X70500Y-65250
X71000Y-83000
X71000Y-90500
X72500Y-61175
X73500Y-62445
X74000Y-49745
X74000Y-90500
X74500Y-63715
X75500Y-88250
X77000Y-83000
X77500Y-65500
X77500Y-107500
X77500Y-112500
X77500Y-117500
X77500Y-122500
X77500Y-127500
X78000Y-72750
X79500Y-69250
X81500Y-71250
X83000Y-83000
X83500Y-56095
X84750Y-58635
X87250Y-59905
X87500Y-54825
X89000Y-91700
X89250Y-54825
X90750Y-69250
X90750Y-77250
X90750Y-78750
X90750Y-86000
X90750Y-87250
X92000Y-90500
X95000Y-88500
X95000Y-90500
X95000Y-93250
X95000Y-97500
X98000Y-70750
X98000Y-88500
X98250Y-92250
X100000Y-63500
X100250Y-92250
X101250Y-64250
X103500Y-52285
X103500Y-93250
X106500Y-52285
X109250Y-70000
X109500Y-97500
X111000Y-115500
X112000Y-57365
X112500Y-131000
X113000Y-66250
X113000Y-110000
X113500Y-52285
X114500Y-97500
X114750Y-56095
X114750Y-66250
X117250Y-67000
X117500Y-131000
X120250Y-109550
X121000Y-55000
X121500Y-114300
X122500Y-131000
X122750Y-119050
X124000Y-55000
X125250Y-109550
X125250Y-114300
X125250Y-119050
X126250Y-53000
X126750Y-62500
X131500Y-77500
X131750Y-109550
X131750Y-114300
X131750Y-119050
X131750Y-123800
X132500Y-52000
X132500Y-85500
X132500Y-90500
X132500Y-95500
T2
X52500Y-47500
X55500Y-56710
X55500Y-75000
X57500Y-47500
X68000Y-94300
X68500Y-55500
X71000Y-92800
X74000Y-94300
X77500Y-90500
X79000Y-75000
X80500Y-49745
X80500Y-52145
X81500Y-88750
X86500Y-86700
X90750Y-75000
X96000Y-49750
X102500Y-75000
X103000Y-49750
X103000Y-57250
X104000Y-76500
X116500Y-49745
X117500Y-51015
T3
X115000Y-115000
X115000Y-116000
T4
X56750Y-90500
X108750Y-90500
T5
X131540Y-64660
X131540Y-67200
X131540Y-69740
X99960Y-86500
X102500Y-86500
X80250Y-94300
X82790Y-94300
X85330Y-94300
X131540Y-54500
X131540Y-57040
X131540Y-59580
X131540Y-62120
X39250Y-74820
X39250Y-77360
X39250Y-79900
X39250Y-82440
X116200Y-72280
X116200Y-74820
X73210Y-55500
X75750Y-55500
X105050Y-104250
X107590Y-104250
X110130Y-104250
X112670Y-104250
X115210Y-104250
X117750Y-104250
X131540Y-72280
X131540Y-74820
X106750Y-125500
X106750Y-128040
X39250Y-84980
X39250Y-87520
X39250Y-90060
X129000Y-54500
X129000Y-57040
X129000Y-59580
X129000Y-62120
T6
X59750Y-115750
X59750Y-126500
X98250Y-118500
X98250Y-126500
T7
X50000Y-113625
X50000Y-118625
X50000Y-123625
T8
X48640Y-90500
X120860Y-90500
T9
X41250Y-59250
T10
X38710Y-56710
X38710Y-61790
X43790Y-56710
X43790Y-61790
T11
X99500Y-57245
T12
X130500Y-123750
X130500Y-126250
X130500Y-119000
X130500Y-121500
X130500Y-109500
X130500Y-112000
X130500Y-114250
X130500Y-116750
T13
X59250Y-84520
X106250Y-96480
T14
X48640Y-82500
T15
X43750Y-49250
X128750Y-131750
X43750Y-131750
X128750Y-104250
T16
X56860Y-98500
X112060Y-82500
T0
M30
